<svg width="64" height="64" viewBox="0 0 64 64" fill="none" xmlns="http://www.w3.org/2000/svg">
<path fill-rule="evenodd" clip-rule="evenodd" d="M0.395036 1.58655C8.35504 21.9225 8.93204 38.8375 2.27804 56.7405C0.969037 60.2625 0.0600364 63.3055 0.257036 63.5035C0.455036 63.7005 3.49804 62.7915 7.02004 61.4825C22.647 55.6745 39.151 55.4035 54.527 60.7035C59.379 62.3765 63.484 63.6095 63.649 63.4455C63.813 63.2805 63.059 61.1355 61.972 58.6785C54.971 42.8505 54.971 20.8225 61.972 4.99455C63.059 2.53755 63.813 0.392548 63.649 0.227548C63.484 0.0635484 59.379 1.29655 54.527 2.96955C39.164 8.26455 22.646 7.99855 7.05504 2.20355C-0.560964 -0.626451 -0.467964 -0.618451 0.395036 1.58655ZM25.924 16.8365C25.924 18.2315 25.257 18.8365 23.721 18.8365C21.734 18.8365 21.901 19.2285 25.423 22.8355C28.465 25.9505 29.061 27.0995 28.124 28.0365C27.187 28.9735 26.038 28.3775 22.923 25.3355C19.316 21.8135 18.924 21.6465 18.924 23.6335C18.924 25.1695 18.319 25.8365 16.924 25.8365C15.166 25.8365 14.924 25.1695 14.924 20.3365V14.8365H20.424C25.257 14.8365 25.924 15.0785 25.924 16.8365ZM48.924 20.3365C48.924 25.1695 48.682 25.8365 46.924 25.8365C45.529 25.8365 44.924 25.1695 44.924 23.6335C44.924 21.6465 44.532 21.8135 40.925 25.3355C37.81 28.3775 36.661 28.9735 35.724 28.0365C34.787 27.0995 35.383 25.9505 38.425 22.8355C41.947 19.2285 42.114 18.8365 40.127 18.8365C38.591 18.8365 37.924 18.2315 37.924 16.8365C37.924 15.0785 38.591 14.8365 43.424 14.8365H48.924V20.3365ZM28.48 35.9265C28.85 36.5265 27.436 38.7765 25.336 40.9265C21.878 44.4675 21.726 44.8365 23.721 44.8365C25.257 44.8365 25.924 45.4415 25.924 46.8365C25.924 48.5945 25.257 48.8365 20.424 48.8365H14.924V43.3365C14.924 38.5035 15.166 37.8365 16.924 37.8365C18.327 37.8365 18.924 38.5035 18.924 40.0695C18.924 42.1135 19.242 41.9855 22.657 38.5695C26.654 34.5725 27.426 34.2225 28.48 35.9265ZM41.132 38.5395C44.587 41.9125 44.924 42.0465 44.924 40.0395C44.924 38.5035 45.529 37.8365 46.924 37.8365C48.682 37.8365 48.924 38.5035 48.924 43.3365V48.8365H43.424C38.591 48.8365 37.924 48.5945 37.924 46.8365C37.924 45.4415 38.591 44.8365 40.127 44.8365C42.122 44.8365 41.97 44.4675 38.512 40.9265C36.412 38.7765 34.998 36.5265 35.368 35.9265C36.401 34.2555 37.042 34.5465 41.132 38.5395Z" fill="white"/>
</svg>
